<svg id="signout-icon" width="24" height="24" viewBox="0 0 24 24" fill="none" xmlns="http://www.w3.org/2000/svg">
<path fill-rule="evenodd" clip-rule="evenodd" d="M0.75 22.5C0.551088 22.5 0.360322 22.579 0.21967 22.7197C0.0790176 22.8603 0 23.0511 0 23.25C0 23.4489 0.0790176 23.6397 0.21967 23.7803C0.360322 23.921 0.551088 24 0.75 24H20.25C20.4489 24 20.6397 23.921 20.7803 23.7803C20.921 23.6397 21 23.4489 21 23.25C21 23.0511 20.921 22.8603 20.7803 22.7197C20.6397 22.579 20.4489 22.5 20.25 22.5H17V3.7499C17 3.15316 16.7629 2.58087 16.341 2.15891C15.919 1.73695 15.3467 1.49989 14.75 1.49989H13V0.74989C13 0.642536 12.9769 0.536436 12.9324 0.438762C12.8878 0.341088 12.8228 0.254117 12.7418 0.183726C12.6607 0.113335 12.5655 0.061166 12.4625 0.0307441C12.3596 0.000322198 12.2513 -0.00764313 12.145 0.00738646L3.645 1.50739C3.46608 1.53269 3.3023 1.62174 3.1838 1.75816C3.0653 1.89458 3.00003 2.06919 3 2.2499V22.5H0.75ZM13 2.9999V22.5H15.5V3.7499C15.5 3.55099 15.421 3.36022 15.2803 3.21957C15.1397 3.07892 14.9489 2.9999 14.75 2.9999H13ZM9.25 15C8.836 15 8.5 14.328 8.5 13.5C8.5 12.6719 8.836 11.9999 9.25 11.9999C9.664 11.9999 10 12.6719 10 13.5C10 14.328 9.664 15 9.25 15Z" fill="#FBC928"/>
<g clip-path="url(#clip0)">
<path d="M19 12.5H15H11V15.5H19V18L22 14L19 10V12.5Z" fill="#FBC928"/>
</g>
<defs>
<clipPath id="clip0">
<rect width="12.24" height="12.2401" fill="white" transform="translate(11.76 7.68005)"/>
</clipPath>
</defs>
</svg>
