<svg width="29" height="24" viewBox="0 0 29 24" fill="none" xmlns="http://www.w3.org/2000/svg">
<g clip-path="url(#clip0)">
<path d="M20.9824 1.39845C21.3278 1.39845 21.6078 1.11705 21.6078 0.769964C21.6078 0.422874 21.3278 0.141479 20.9824 0.141479H18.5276C18.2851 0.141479 18.0643 0.282495 17.9614 0.5032L15.8041 5.12762H7.09423L9.53587 2.67251C9.77997 2.42712 9.77993 2.02863 9.53528 1.78337C7.35504 -0.402862 3.81131 -0.402989 1.63521 1.78294L1.63458 1.78354L1.63416 1.784C-0.54372 3.97282 -0.545788 7.53748 1.63437 9.72837C1.87847 9.97368 2.27475 9.97376 2.51894 9.72825L5.06491 7.16821C5.13192 7.60182 5.23996 8.10027 5.41375 8.61569C6.05633 10.5213 7.29975 11.7958 9.02205 12.3222C9.56271 13.9209 10.9205 15.0676 12.5249 15.307V20.3157H8.54925C8.20386 20.3157 7.92385 20.5971 7.92385 20.9442C7.92385 21.2913 8.20386 21.5727 8.54925 21.5727H17.7513C18.0967 21.5727 18.3767 21.2913 18.3767 20.9442C18.3767 20.5971 18.0967 20.3157 17.7513 20.3157H13.7757V15.307C15.38 15.0676 16.7379 13.9209 17.2785 12.3222C19.0009 11.7958 20.2443 10.5213 20.8868 8.61569C21.3868 7.13301 21.3434 5.78918 21.3413 5.73269C21.3288 5.39493 21.0527 5.12762 20.7163 5.12762H17.1856L18.9252 1.39849L20.9824 1.39845ZM2.10839 3.14963L4.07432 5.12762H1.29548C1.39643 4.42543 1.6672 3.7435 2.10839 3.14963ZM2.10818 8.36305C1.66682 7.76908 1.39613 7.08691 1.29518 6.38455H4.0758L2.10818 8.36305ZM4.95754 4.2375L2.99275 2.26066C3.58249 1.81836 4.25976 1.54633 4.95754 1.44501V4.2375ZM6.20835 1.44565C6.90689 1.54693 7.5858 1.81823 8.17694 2.26083L6.20835 4.24026V1.44565ZM16.6344 11.1955C16.4072 11.2495 16.2289 11.4261 16.1718 11.6536C15.8111 13.0923 14.5686 14.0972 13.1502 14.0972C11.7319 14.0972 10.4894 13.0923 10.1287 11.6536C10.0716 11.4262 9.89333 11.2495 9.66615 11.1955C8.48456 10.9148 7.5904 10.2229 6.99758 9.13479H19.2951C18.7916 10.0502 17.9711 10.8779 16.6344 11.1955ZM20.0686 6.38459C20.0373 6.7698 19.9652 7.3032 19.8024 7.87783H6.4955C6.33458 7.30409 6.26313 6.77023 6.23198 6.38459H20.0686Z" fill="#E38000"/>
</g>
<g clip-path="url(#clip1)">
<ellipse cx="24.0245" cy="19.0001" rx="4.31209" ry="4.33333" fill="black"/>
<path d="M24.522 16.5H23.527V18.5H21.5368V19.5H23.527V21.5H24.522V19.5H26.5122V18.5H24.522V16.5ZM24.0245 14C21.278 14 19.049 16.24 19.049 19C19.049 21.76 21.278 24 24.0245 24C26.771 24 29 21.76 29 19C29 16.24 26.771 14 24.0245 14ZM24.0245 23C21.8303 23 20.0441 21.205 20.0441 19C20.0441 16.795 21.8303 15 24.0245 15C26.2187 15 28.0049 16.795 28.0049 19C28.0049 21.205 26.2187 23 24.0245 23Z" fill="#FFFFC1"/>
</g>
<defs>
<clipPath id="clip0">
<rect width="21.6078" height="21.7143" fill="white"/>
</clipPath>
<clipPath id="clip1">
<rect width="9.95098" height="10" fill="white" transform="translate(19.049 14)"/>
</clipPath>
</defs>
</svg>
