<svg width="29" height="24" viewBox="0 0 29 24" fill="none" xmlns="http://www.w3.org/2000/svg">
<g clip-path="url(#clip0)">
<path d="M20.6783 1.37395C21.0187 1.37395 21.2947 1.0975 21.2947 0.756496C21.2947 0.415496 21.0187 0.139038 20.6783 0.139038H18.2591C18.0201 0.139038 17.8025 0.27758 17.7011 0.494413L15.5751 5.0377H6.99141L9.39767 2.62566C9.63824 2.38458 9.63819 1.99308 9.39709 1.75212C7.24845 -0.395754 3.75608 -0.395878 1.61151 1.7517L1.61089 1.75229L1.61047 1.75275C-0.53584 3.90316 -0.537878 7.40529 1.61068 9.55775C1.85124 9.79875 2.24179 9.79883 2.48243 9.55762L4.9915 7.0425C5.05755 7.4685 5.16402 7.9582 5.3353 8.46458C5.96856 10.3368 7.19396 11.5889 8.8913 12.1061C9.42412 13.6767 10.7623 14.8033 12.3434 15.0385V19.9594H8.42535C8.08497 19.9594 7.80901 20.2358 7.80901 20.5768C7.80901 20.9178 8.08497 21.1943 8.42535 21.1943H17.4941C17.8344 21.1943 18.1104 20.9178 18.1104 20.5768C18.1104 20.2358 17.8344 19.9594 17.4941 19.9594H13.576V15.0385C15.1571 14.8033 16.4953 13.6767 17.0281 12.1061C18.7255 11.5889 19.9509 10.3368 20.5841 8.46458C21.0768 7.00791 21.0341 5.68766 21.032 5.63216C21.0197 5.30033 20.7476 5.0377 20.4161 5.0377H16.9365L18.6509 1.374L20.6783 1.37395ZM2.07783 3.09441L4.01528 5.0377H1.2767C1.37619 4.34783 1.64304 3.67787 2.07783 3.09441ZM2.07763 8.21637C1.64266 7.63283 1.3759 6.96262 1.27641 6.27258H4.01673L2.07763 8.21637ZM4.8857 4.1632L2.94938 2.22104C3.53057 1.7865 4.19803 1.51925 4.8857 1.4197V4.1632ZM6.11837 1.42033C6.80679 1.51983 7.47587 1.78637 8.05844 2.2212L6.11837 4.16591V1.42033ZM16.3933 10.9992C16.1695 11.0522 15.9937 11.2257 15.9375 11.4492C15.582 12.8627 14.3575 13.8499 12.9597 13.8499C11.5619 13.8499 10.3373 12.8627 9.9819 11.4492C9.92567 11.2257 9.74995 11.0522 9.52606 10.9992C8.3616 10.7233 7.4804 10.0436 6.89617 8.97458H19.0155C18.5192 9.87395 17.7106 10.6871 16.3933 10.9992ZM19.7778 6.27262C19.7469 6.65108 19.6759 7.17512 19.5154 7.73966H6.40136C6.24277 7.176 6.17236 6.6515 6.14167 6.27262H19.7778Z" fill="#E38000"/>
</g>
<g clip-path="url(#clip1)">
<path d="M24.7979 15.158L23.9574 16.0001L23.3269 15.158L22.4863 14.7369H22.0661H21.0153L20.3849 15.158L19.7545 16.0001L19.3342 16.8422L19.5443 17.8948L19.9646 18.7369L23.9574 23.158L28.3704 17.8948V16.8422L27.74 15.3685L27.1095 14.9475L25.8487 14.7369L24.7979 15.158Z" fill="black" stroke="black" stroke-width="0.438596"/>
<path d="M26.2261 13.8948C25.3486 13.8948 24.5063 14.3408 23.9566 15.0457C23.4068 14.3408 22.5646 13.8948 21.687 13.8948C20.1336 13.8948 18.9131 15.2275 18.9131 16.9236C18.9131 19.0052 20.6279 20.7014 23.2253 23.2786L23.9566 24L24.6879 23.2731C27.2853 20.7014 29 19.0052 29 16.9236C29 15.2275 27.7795 13.8948 26.2261 13.8948ZM24.007 22.4581L23.9566 22.5132L23.9061 22.4581C21.5054 20.0846 19.9218 18.5151 19.9218 16.9236C19.9218 15.8222 20.6783 14.9962 21.687 14.9962C22.4637 14.9962 23.2202 15.5414 23.4875 16.2958H24.4307C24.6929 15.5414 25.4494 14.9962 26.2261 14.9962C27.2348 14.9962 27.9913 15.8222 27.9913 16.9236C27.9913 18.5151 26.4077 20.0846 24.007 22.4581Z" fill="#FFFFC1"/>
</g>
<defs>
<clipPath id="clip0">
<rect width="21.2947" height="21.3333" fill="white"/>
</clipPath>
<clipPath id="clip1">
<rect width="10.087" height="10.1053" fill="white" transform="translate(18.9131 13.8948)"/>
</clipPath>
</defs>
</svg>
