<svg width="29" height="24" viewBox="0 0 29 24" fill="none" xmlns="http://www.w3.org/2000/svg">
<g clip-path="url(#clip0)">
<path d="M20.9825 1.39857C21.3278 1.39857 21.6079 1.11718 21.6079 0.770086C21.6079 0.422997 21.3278 0.141602 20.9825 0.141602H18.5277C18.2851 0.141602 18.0644 0.282617 17.9614 0.503323L15.8042 5.12774H7.09426L9.53591 2.67263C9.78001 2.42724 9.77997 2.02875 9.53532 1.78349C7.35508 -0.40274 3.81135 -0.402867 1.63524 1.78307L1.63461 1.78366L1.63419 1.78413C-0.543689 3.97294 -0.545758 7.53761 1.6344 9.7285C1.8785 9.9738 2.27478 9.97389 2.51897 9.72837L5.06494 7.16834C5.13196 7.60194 5.24 8.1004 5.41379 8.61581C6.05637 10.5215 7.29979 11.7959 9.02209 12.3223C9.56275 13.921 10.9206 15.0677 12.5249 15.3071V20.3159H8.54929C8.2039 20.3159 7.92388 20.5973 7.92388 20.9444C7.92388 21.2914 8.2039 21.5728 8.54929 21.5728H17.7514C18.0968 21.5728 18.3768 21.2914 18.3768 20.9444C18.3768 20.5973 18.0968 20.3159 17.7514 20.3159H13.7757V15.3071C15.3801 15.0677 16.7379 13.921 17.2786 12.3223C19.0009 11.7959 20.2443 10.5215 20.8869 8.61581C21.3868 7.13313 21.3434 5.78931 21.3413 5.73282C21.3288 5.39506 21.0527 5.12774 20.7164 5.12774H17.1856L18.9252 1.39861L20.9825 1.39857ZM2.10842 3.14975L4.07435 5.12774H1.29551C1.39646 4.42555 1.66723 3.74363 2.10842 3.14975ZM2.10821 8.36317C1.66685 7.76921 1.39616 7.08703 1.29521 6.38467H4.07583L2.10821 8.36317ZM4.95758 4.23763L2.99278 2.26078C3.58252 1.81848 4.25979 1.54646 4.95758 1.44514V4.23763ZM6.20838 1.44577C6.90692 1.54705 7.58584 1.81835 8.17698 2.26095L6.20838 4.24039V1.44577ZM16.6344 11.1957C16.4073 11.2496 16.2289 11.4262 16.1719 11.6537C15.8112 13.0925 14.5686 14.0973 13.1503 14.0973C11.7319 14.0973 10.4894 13.0925 10.1287 11.6537C10.0717 11.4263 9.89336 11.2496 9.66619 11.1957C8.48459 10.9149 7.59044 10.223 6.99762 9.13492H19.2952C18.7916 10.0504 17.9711 10.878 16.6344 11.1957ZM20.0687 6.38471C20.0373 6.76993 19.9652 7.30333 19.8024 7.87795H6.49553C6.33461 7.30422 6.26316 6.77035 6.23202 6.38471H20.0687Z" fill="#E38000"/>
</g>
<g clip-path="url(#clip1)">
<circle cx="22.6618" cy="17.6127" r="2.95588" fill="black"/>
<path d="M26.0909 20.1968H25.6458L25.4881 20.0447C26.0401 19.4025 26.3725 18.5687 26.3725 17.6618C26.3725 15.6393 24.7332 14 22.7108 14C20.6884 14 19.049 15.6393 19.049 17.6618C19.049 19.6842 20.6884 21.3235 22.7108 21.3235C23.6178 21.3235 24.4515 20.9911 25.0937 20.4391L25.2458 20.5968V21.0418L28.0626 23.8529L28.902 23.0136L26.0909 20.1968ZM22.7108 20.1968C21.308 20.1968 20.1757 19.0645 20.1757 17.6618C20.1757 16.259 21.308 15.1267 22.7108 15.1267C24.1135 15.1267 25.2458 16.259 25.2458 17.6618C25.2458 19.0645 24.1135 20.1968 22.7108 20.1968Z" fill="#FFFFC1"/>
</g>
<defs>
<clipPath id="clip0">
<rect width="21.6078" height="21.7143" fill="white"/>
</clipPath>
<clipPath id="clip1">
<rect width="9.85294" height="9.85294" fill="white" transform="translate(19.049 14)"/>
</clipPath>
</defs>
</svg>
